<mxfile host="app.diagrams.net" modified="2023-10-20T08:52:43.516Z" agent="Mozilla/5.0 (Windows NT 10.0; Win64; x64) AppleWebKit/537.36 (KHTML, like Gecko) Chrome/118.0.0.0 Safari/537.36" etag="cAUwt3bSiePFecA7RfVh" version="22.0.5" type="github">
  <diagram name="第 1 页" id="mXTiSnb_rKi-4NSGnVkO">
    <mxGraphModel dx="1050" dy="574" grid="1" gridSize="10" guides="1" tooltips="1" connect="1" arrows="1" fold="1" page="1" pageScale="1" pageWidth="827" pageHeight="1169" math="0" shadow="0">
      <root>
        <mxCell id="0" />
        <mxCell id="1" parent="0" />
        <mxCell id="NfuKaLgL-_t84pn4EmBl-1" value="Button Text" style="strokeWidth=1;shadow=0;dashed=0;align=center;html=1;shape=mxgraph.mockup.buttons.button;strokeColor=#666666;fontColor=#ffffff;mainText=;buttonStyle=round;fontSize=17;fontStyle=1;fillColor=#008cff;whiteSpace=wrap;" vertex="1" parent="1">
          <mxGeometry x="340" y="270" width="150" height="50" as="geometry" />
        </mxCell>
        <mxCell id="NfuKaLgL-_t84pn4EmBl-2" value="" style="strokeWidth=1;shadow=0;dashed=0;align=center;html=1;shape=mxgraph.mockup.buttons.multiButton;fillColor=#008cff;strokeColor=#666666;mainText=;subText=;" vertex="1" parent="1">
          <mxGeometry x="340" y="270" width="150" height="50" as="geometry" />
        </mxCell>
        <mxCell id="NfuKaLgL-_t84pn4EmBl-3" value="Main Text" style="strokeWidth=1;shadow=0;dashed=0;align=center;html=1;shape=mxgraph.mockup.anchor;fontSize=16;fontColor=#ffffff;fontStyle=1;whiteSpace=wrap;" vertex="1" parent="NfuKaLgL-_t84pn4EmBl-2">
          <mxGeometry y="8" width="150" height="20" as="geometry" />
        </mxCell>
        <mxCell id="NfuKaLgL-_t84pn4EmBl-4" value="Sub Text" style="strokeWidth=1;shadow=0;dashed=0;align=center;html=1;shape=mxgraph.mockup.anchor;fontSize=12;fontColor=#ffffff;fontStyle=1;whiteSpace=wrap;" vertex="1" parent="NfuKaLgL-_t84pn4EmBl-2">
          <mxGeometry y="30" width="150" height="10" as="geometry" />
        </mxCell>
        <mxCell id="NfuKaLgL-_t84pn4EmBl-5" value="" style="strokeWidth=1;shadow=0;dashed=0;align=center;html=1;shape=mxgraph.mockup.rrect;rSize=10;fillColor=#ffffff;strokeColor=#666666;" vertex="1" parent="1">
          <mxGeometry x="160" y="270" width="500" height="50" as="geometry" />
        </mxCell>
        <mxCell id="NfuKaLgL-_t84pn4EmBl-6" value="Button 2" style="strokeColor=inherit;fillColor=inherit;gradientColor=inherit;strokeWidth=1;shadow=0;dashed=0;align=center;html=1;shape=mxgraph.mockup.rrect;rSize=0;fontSize=17;fontColor=#666666;fontStyle=1;resizeHeight=1;whiteSpace=wrap;" vertex="1" parent="NfuKaLgL-_t84pn4EmBl-5">
          <mxGeometry width="125" height="50" relative="1" as="geometry">
            <mxPoint x="125" as="offset" />
          </mxGeometry>
        </mxCell>
        <mxCell id="NfuKaLgL-_t84pn4EmBl-7" value="Button 3" style="strokeColor=inherit;fillColor=inherit;gradientColor=inherit;strokeWidth=1;shadow=0;dashed=0;align=center;html=1;shape=mxgraph.mockup.rrect;rSize=0;fontSize=17;fontColor=#666666;fontStyle=1;resizeHeight=1;whiteSpace=wrap;" vertex="1" parent="NfuKaLgL-_t84pn4EmBl-5">
          <mxGeometry width="125" height="50" relative="1" as="geometry">
            <mxPoint x="250" as="offset" />
          </mxGeometry>
        </mxCell>
        <mxCell id="NfuKaLgL-_t84pn4EmBl-8" value="Button 4" style="strokeColor=inherit;fillColor=inherit;gradientColor=inherit;strokeWidth=1;shadow=0;dashed=0;align=center;html=1;shape=mxgraph.mockup.rightButton;rSize=10;fontSize=17;fontColor=#666666;fontStyle=1;resizeHeight=1;whiteSpace=wrap;" vertex="1" parent="NfuKaLgL-_t84pn4EmBl-5">
          <mxGeometry x="1" width="125" height="50" relative="1" as="geometry">
            <mxPoint x="-125" as="offset" />
          </mxGeometry>
        </mxCell>
        <mxCell id="NfuKaLgL-_t84pn4EmBl-9" value="Button 1" style="strokeWidth=1;shadow=0;dashed=0;align=center;html=1;shape=mxgraph.mockup.leftButton;rSize=10;fontSize=17;fontColor=#ffffff;fontStyle=1;fillColor=#008cff;strokeColor=#008cff;resizeHeight=1;whiteSpace=wrap;" vertex="1" parent="NfuKaLgL-_t84pn4EmBl-5">
          <mxGeometry width="125" height="50" relative="1" as="geometry" />
        </mxCell>
        <mxCell id="NfuKaLgL-_t84pn4EmBl-10" value="" style="strokeWidth=1;shadow=0;dashed=0;align=center;html=1;shape=mxgraph.mockup.rrect;rSize=10;strokeColor=#666666;" vertex="1" parent="1">
          <mxGeometry x="350" y="200" width="120" height="200" as="geometry" />
        </mxCell>
        <mxCell id="NfuKaLgL-_t84pn4EmBl-11" value="Button 2" style="strokeColor=inherit;fillColor=inherit;gradientColor=inherit;strokeWidth=1;shadow=0;dashed=0;align=center;html=1;shape=mxgraph.mockup.rrect;rSize=0;fontSize=17;fontColor=#666666;fontStyle=1;resizeWidth=1;whiteSpace=wrap;" vertex="1" parent="NfuKaLgL-_t84pn4EmBl-10">
          <mxGeometry width="120" height="50" relative="1" as="geometry">
            <mxPoint y="50" as="offset" />
          </mxGeometry>
        </mxCell>
        <mxCell id="NfuKaLgL-_t84pn4EmBl-12" value="Button 3" style="strokeColor=inherit;fillColor=inherit;gradientColor=inherit;strokeWidth=1;shadow=0;dashed=0;align=center;html=1;shape=mxgraph.mockup.rrect;rSize=0;fontSize=17;fontColor=#666666;fontStyle=1;resizeWidth=1;whiteSpace=wrap;" vertex="1" parent="NfuKaLgL-_t84pn4EmBl-10">
          <mxGeometry width="120" height="50" relative="1" as="geometry">
            <mxPoint y="100" as="offset" />
          </mxGeometry>
        </mxCell>
        <mxCell id="NfuKaLgL-_t84pn4EmBl-13" value="Button 4" style="strokeColor=inherit;fillColor=inherit;gradientColor=inherit;strokeWidth=1;shadow=0;dashed=0;align=center;html=1;shape=mxgraph.mockup.bottomButton;rSize=10;fontSize=17;fontColor=#666666;fontStyle=1;resizeWidth=1;whiteSpace=wrap;" vertex="1" parent="NfuKaLgL-_t84pn4EmBl-10">
          <mxGeometry y="1" width="120" height="50" relative="1" as="geometry">
            <mxPoint y="-50" as="offset" />
          </mxGeometry>
        </mxCell>
        <mxCell id="NfuKaLgL-_t84pn4EmBl-14" value="Button 1" style="strokeWidth=1;shadow=0;dashed=0;align=center;html=1;shape=mxgraph.mockup.topButton;rSize=10;fontSize=17;fontColor=#ffffff;fontStyle=1;fillColor=#008cff;strokeColor=#008cff;resizeWidth=1;whiteSpace=wrap;" vertex="1" parent="NfuKaLgL-_t84pn4EmBl-10">
          <mxGeometry width="120" height="50" relative="1" as="geometry" />
        </mxCell>
        <mxCell id="NfuKaLgL-_t84pn4EmBl-15" value="" style="strokeWidth=1;shadow=0;dashed=0;align=center;html=1;shape=mxgraph.mockup.containers.browserWindow;rSize=0;strokeColor=#666666;strokeColor2=#008cff;strokeColor3=#c4c4c4;mainText=,;recursiveResize=0;" vertex="1" parent="1">
          <mxGeometry x="140" y="110" width="550" height="380" as="geometry" />
        </mxCell>
        <mxCell id="NfuKaLgL-_t84pn4EmBl-16" value="Page 1" style="strokeWidth=1;shadow=0;dashed=0;align=center;html=1;shape=mxgraph.mockup.containers.anchor;fontSize=17;fontColor=#666666;align=left;whiteSpace=wrap;" vertex="1" parent="NfuKaLgL-_t84pn4EmBl-15">
          <mxGeometry x="60" y="12" width="110" height="26" as="geometry" />
        </mxCell>
        <mxCell id="NfuKaLgL-_t84pn4EmBl-17" value="https://www.draw.io" style="strokeWidth=1;shadow=0;dashed=0;align=center;html=1;shape=mxgraph.mockup.containers.anchor;rSize=0;fontSize=17;fontColor=#666666;align=left;" vertex="1" parent="NfuKaLgL-_t84pn4EmBl-15">
          <mxGeometry x="130" y="60" width="250" height="26" as="geometry" />
        </mxCell>
        <mxCell id="NfuKaLgL-_t84pn4EmBl-18" value="Some default&#xa;dialog&#xa;text." style="strokeWidth=1;shadow=0;dashed=0;align=center;html=1;shape=mxgraph.mockup.containers.rrect;rSize=0;strokeColor=#666666;fontColor=#666666;fontSize=17;verticalAlign=top;whiteSpace=wrap;fillColor=#ffffff;spacingTop=32;" vertex="1" parent="1">
          <mxGeometry x="290" y="230" width="250" height="140" as="geometry" />
        </mxCell>
        <mxCell id="NfuKaLgL-_t84pn4EmBl-19" value="Dialog Title" style="strokeWidth=1;shadow=0;dashed=0;align=center;html=1;shape=mxgraph.mockup.containers.rrect;rSize=0;fontSize=17;fontColor=#666666;strokeColor=#666666;align=left;spacingLeft=8;fillColor=none;resizeWidth=1;whiteSpace=wrap;" vertex="1" parent="NfuKaLgL-_t84pn4EmBl-18">
          <mxGeometry width="250" height="30" relative="1" as="geometry" />
        </mxCell>
        <mxCell id="NfuKaLgL-_t84pn4EmBl-20" value="" style="shape=ellipse;strokeColor=#008cff;resizable=0;fillColor=none;html=1;" vertex="1" parent="NfuKaLgL-_t84pn4EmBl-19">
          <mxGeometry x="1" y="0.5" width="20" height="20" relative="1" as="geometry">
            <mxPoint x="-25" y="-10" as="offset" />
          </mxGeometry>
        </mxCell>
        <mxCell id="NfuKaLgL-_t84pn4EmBl-21" value="Cancel" style="strokeWidth=1;shadow=0;dashed=0;align=center;html=1;shape=mxgraph.mockup.containers.rrect;rSize=0;fontSize=16;fontColor=#666666;strokeColor=#c4c4c4;whiteSpace=wrap;fillColor=none;" vertex="1" parent="NfuKaLgL-_t84pn4EmBl-18">
          <mxGeometry x="0.25" y="1" width="90" height="25" relative="1" as="geometry">
            <mxPoint x="-45" y="-33" as="offset" />
          </mxGeometry>
        </mxCell>
        <mxCell id="NfuKaLgL-_t84pn4EmBl-22" value="OK" style="strokeWidth=1;shadow=0;dashed=0;align=center;html=1;shape=mxgraph.mockup.containers.rrect;rSize=0;fontSize=16;fontColor=#666666;strokeColor=#c4c4c4;whiteSpace=wrap;fillColor=none;" vertex="1" parent="NfuKaLgL-_t84pn4EmBl-18">
          <mxGeometry x="0.75" y="1" width="90" height="25" relative="1" as="geometry">
            <mxPoint x="-45" y="-33" as="offset" />
          </mxGeometry>
        </mxCell>
        <mxCell id="NfuKaLgL-_t84pn4EmBl-23" value="Some default&#xa;message&#xa;text." style="strokeWidth=1;shadow=0;dashed=0;align=center;html=1;shape=mxgraph.mockup.containers.rrect;rSize=0;strokeColor=#666666;fontColor=#666666;fontSize=17;verticalAlign=top;whiteSpace=wrap;fillColor=#ffffff;spacingTop=32;" vertex="1" parent="1">
          <mxGeometry x="290" y="220" width="250" height="160" as="geometry" />
        </mxCell>
        <mxCell id="NfuKaLgL-_t84pn4EmBl-24" value="Message Title" style="strokeWidth=1;shadow=0;dashed=0;align=center;html=1;shape=mxgraph.mockup.containers.rrect;rSize=0;fontSize=17;fontColor=#666666;strokeColor=#666666;align=left;spacingLeft=8;fillColor=#ffffff;resizeWidth=1;whiteSpace=wrap;" vertex="1" parent="NfuKaLgL-_t84pn4EmBl-23">
          <mxGeometry width="250" height="30" relative="1" as="geometry" />
        </mxCell>
        <mxCell id="NfuKaLgL-_t84pn4EmBl-25" value="" style="shape=ellipse;strokeColor=#008cff;resizable=0;fillColor=none;html=1;" vertex="1" parent="NfuKaLgL-_t84pn4EmBl-24">
          <mxGeometry x="1" y="0.5" width="20" height="20" relative="1" as="geometry">
            <mxPoint x="-25" y="-10" as="offset" />
          </mxGeometry>
        </mxCell>
        <mxCell id="NfuKaLgL-_t84pn4EmBl-26" value="OK" style="strokeWidth=1;shadow=0;dashed=0;align=center;html=1;shape=mxgraph.mockup.containers.rrect;rSize=0;fontSize=16;fontColor=#666666;strokeColor=#c4c4c4;resizable=0;whiteSpace=wrap;fillColor=#ffffff;" vertex="1" parent="NfuKaLgL-_t84pn4EmBl-23">
          <mxGeometry x="0.5" y="1" width="120" height="25" relative="1" as="geometry">
            <mxPoint x="-60" y="-33" as="offset" />
          </mxGeometry>
        </mxCell>
        <mxCell id="NfuKaLgL-_t84pn4EmBl-27" value="Window Title" style="strokeWidth=1;shadow=0;dashed=0;align=center;html=1;shape=mxgraph.mockup.containers.window;align=left;verticalAlign=top;spacingLeft=8;strokeColor2=#008cff;strokeColor3=#c4c4c4;fontColor=#666666;mainText=;fontSize=17;labelBackgroundColor=none;whiteSpace=wrap;" vertex="1" parent="1">
          <mxGeometry x="140" y="110" width="550" height="380" as="geometry" />
        </mxCell>
        <mxCell id="NfuKaLgL-_t84pn4EmBl-28" value="" style="strokeWidth=1;shadow=0;dashed=0;align=center;html=1;shape=mxgraph.mockup.containers.marginRect2;rectMarginTop=32;strokeColor=#666666;gradientColor=none;whiteSpace=wrap;" vertex="1" parent="1">
          <mxGeometry x="210" y="200" width="400" height="200" as="geometry" />
        </mxCell>
        <mxCell id="NfuKaLgL-_t84pn4EmBl-29" value="Tab 1" style="strokeColor=inherit;fillColor=inherit;gradientColor=inherit;strokeWidth=1;shadow=0;dashed=0;align=center;html=1;shape=mxgraph.mockup.containers.rrect;rSize=0;fontSize=17;fontColor=#666666;gradientColor=none;" vertex="1" parent="NfuKaLgL-_t84pn4EmBl-28">
          <mxGeometry width="60" height="25" relative="1" as="geometry">
            <mxPoint x="10" as="offset" />
          </mxGeometry>
        </mxCell>
        <mxCell id="NfuKaLgL-_t84pn4EmBl-30" value="Tab 2" style="strokeWidth=1;shadow=0;dashed=0;align=center;html=1;shape=mxgraph.mockup.containers.rrect;rSize=0;fontSize=17;fontColor=#ffffff;strokeColor=#008cff;fillColor=#008cff;" vertex="1" parent="NfuKaLgL-_t84pn4EmBl-28">
          <mxGeometry width="60" height="25" relative="1" as="geometry">
            <mxPoint x="75" as="offset" />
          </mxGeometry>
        </mxCell>
        <mxCell id="NfuKaLgL-_t84pn4EmBl-31" value="Tab 3" style="strokeColor=inherit;fillColor=inherit;gradientColor=inherit;strokeWidth=1;shadow=0;dashed=0;align=center;html=1;shape=mxgraph.mockup.containers.rrect;rSize=0;fontSize=17;fontColor=#666666;gradientColor=none;" vertex="1" parent="NfuKaLgL-_t84pn4EmBl-28">
          <mxGeometry width="60" height="25" relative="1" as="geometry">
            <mxPoint x="140" as="offset" />
          </mxGeometry>
        </mxCell>
        <mxCell id="NfuKaLgL-_t84pn4EmBl-32" value="" style="strokeWidth=1;shadow=0;dashed=0;align=center;html=1;shape=mxgraph.mockup.containers.topButton;rSize=5;strokeColor=#008cff;fillColor=#008cff;gradientColor=none;resizeWidth=1;movable=0;deletable=1;" vertex="1" parent="NfuKaLgL-_t84pn4EmBl-28">
          <mxGeometry width="400" height="7" relative="1" as="geometry">
            <mxPoint y="25" as="offset" />
          </mxGeometry>
        </mxCell>
        <mxCell id="NfuKaLgL-_t84pn4EmBl-33" value="" style="strokeWidth=1;shadow=0;dashed=0;align=center;html=1;shape=mxgraph.mockup.containers.marginRect2;rectMarginLeft=67;strokeColor=#666666;gradientColor=none;whiteSpace=wrap;" vertex="1" parent="1">
          <mxGeometry x="210" y="200" width="400" height="200" as="geometry" />
        </mxCell>
        <mxCell id="NfuKaLgL-_t84pn4EmBl-34" value="Tab 1" style="strokeColor=inherit;fillColor=inherit;gradientColor=inherit;strokeWidth=1;shadow=0;dashed=0;align=center;html=1;shape=mxgraph.mockup.containers.rrect;rSize=0;fontSize=17;fontColor=#666666;" vertex="1" parent="NfuKaLgL-_t84pn4EmBl-33">
          <mxGeometry width="60" height="25" relative="1" as="geometry">
            <mxPoint y="10" as="offset" />
          </mxGeometry>
        </mxCell>
        <mxCell id="NfuKaLgL-_t84pn4EmBl-35" value="Tab 2" style="strokeWidth=1;shadow=0;dashed=0;align=center;html=1;shape=mxgraph.mockup.containers.rrect;rSize=0;fontSize=17;fontColor=#ffffff;strokeColor=#008cff;fillColor=#008cff;" vertex="1" parent="NfuKaLgL-_t84pn4EmBl-33">
          <mxGeometry width="60" height="25" relative="1" as="geometry">
            <mxPoint y="40" as="offset" />
          </mxGeometry>
        </mxCell>
        <mxCell id="NfuKaLgL-_t84pn4EmBl-36" value="Tab 3" style="strokeColor=inherit;fillColor=inherit;gradientColor=inherit;strokeWidth=1;shadow=0;dashed=0;align=center;html=1;shape=mxgraph.mockup.containers.rrect;rSize=0;fontSize=17;fontColor=#666666;" vertex="1" parent="NfuKaLgL-_t84pn4EmBl-33">
          <mxGeometry width="60" height="25" relative="1" as="geometry">
            <mxPoint y="70" as="offset" />
          </mxGeometry>
        </mxCell>
        <mxCell id="NfuKaLgL-_t84pn4EmBl-37" value="" style="strokeWidth=1;shadow=0;dashed=0;align=center;html=1;shape=mxgraph.mockup.containers.leftButton;rSize=5;strokeColor=#008cff;fillColor=#008cff;resizeHeight=1;movable=0;deletable=0;" vertex="1" parent="NfuKaLgL-_t84pn4EmBl-33">
          <mxGeometry width="7" height="200" relative="1" as="geometry">
            <mxPoint x="60" as="offset" />
          </mxGeometry>
        </mxCell>
      </root>
    </mxGraphModel>
  </diagram>
</mxfile>
